<svg width="24" height="24" viewBox="0 0 24 24" fill="none" xmlns="http://www.w3.org/2000/svg">
<path d="M19.2806 18.9694C19.3503 19.0391 19.4056 19.1218 19.4433 19.2128C19.481 19.3039 19.5004 19.4015 19.5004 19.5C19.5004 19.5986 19.481 19.6961 19.4433 19.7872C19.4056 19.8782 19.3503 19.9609 19.2806 20.0306C19.211 20.1003 19.1282 20.1556 19.0372 20.1933C18.9461 20.231 18.8486 20.2504 18.75 20.2504C18.6515 20.2504 18.5539 20.231 18.4628 20.1933C18.3718 20.1556 18.2891 20.1003 18.2194 20.0306L10.7194 12.5306C10.6497 12.461 10.5943 12.3783 10.5566 12.2872C10.5188 12.1962 10.4994 12.0986 10.4994 12C10.4994 11.9014 10.5188 11.8038 10.5566 11.7128C10.5943 11.6218 10.6497 11.539 10.7194 11.4694L18.2194 3.96938C18.3601 3.82865 18.551 3.74959 18.75 3.74959C18.949 3.74959 19.1399 3.82865 19.2806 3.96938C19.4214 4.11011 19.5004 4.30098 19.5004 4.50001C19.5004 4.69903 19.4214 4.8899 19.2806 5.03063L12.3103 12L19.2806 18.9694ZM4.81032 12L11.7806 5.03063C11.9214 4.8899 12.0004 4.69903 12.0004 4.50001C12.0004 4.30098 11.9214 4.11011 11.7806 3.96938C11.6399 3.82865 11.449 3.74959 11.25 3.74959C11.051 3.74959 10.8601 3.82865 10.7194 3.96938L3.21939 11.4694C3.14965 11.539 3.09433 11.6218 3.05659 11.7128C3.01885 11.8038 2.99942 11.9014 2.99942 12C2.99942 12.0986 3.01885 12.1962 3.05659 12.2872C3.09433 12.3783 3.14965 12.461 3.21939 12.5306L10.7194 20.0306C10.7891 20.1003 10.8718 20.1556 10.9628 20.1933C11.0539 20.231 11.1515 20.2504 11.25 20.2504C11.3486 20.2504 11.4461 20.231 11.5372 20.1933C11.6282 20.1556 11.711 20.1003 11.7806 20.0306C11.8503 19.9609 11.9056 19.8782 11.9433 19.7872C11.981 19.6961 12.0004 19.5986 12.0004 19.5C12.0004 19.4015 11.981 19.3039 11.9433 19.2128C11.9056 19.1218 11.8503 19.0391 11.7806 18.9694L4.81032 12Z" fill="black"/>
</svg>
