<svg width="24" height="24" viewBox="0 0 24 24" fill="none" xmlns="http://www.w3.org/2000/svg">
<path d="M22.5 19.4999H21V12.7499L21.2194 12.9693C21.3604 13.11 21.5515 13.189 21.7507 13.1888C21.9499 13.1886 22.1408 13.1093 22.2816 12.9684C22.4223 12.8274 22.5013 12.6363 22.5011 12.4371C22.5009 12.2379 22.4216 12.0469 22.2806 11.9062L13.0603 2.68867C12.779 2.40757 12.3977 2.24967 12 2.24967C11.6023 2.24967 11.221 2.40757 10.9397 2.68867L1.71938 11.9062C1.57877 12.0469 1.49983 12.2377 1.49991 12.4367C1.5 12.6356 1.57911 12.8263 1.71984 12.9669C1.86057 13.1076 2.0514 13.1865 2.25033 13.1864C2.44927 13.1863 2.64002 13.1072 2.78062 12.9665L3 12.7499V19.4999H1.5C1.30109 19.4999 1.11032 19.5789 0.96967 19.7196C0.829018 19.8602 0.75 20.051 0.75 20.2499C0.75 20.4488 0.829018 20.6396 0.96967 20.7802C1.11032 20.9209 1.30109 20.9999 1.5 20.9999H22.5C22.6989 20.9999 22.8897 20.9209 23.0303 20.7802C23.171 20.6396 23.25 20.4488 23.25 20.2499C23.25 20.051 23.171 19.8602 23.0303 19.7196C22.8897 19.5789 22.6989 19.4999 22.5 19.4999ZM4.5 11.2499L12 3.74992L19.5 11.2499V19.4999H15V14.2499C15 14.051 14.921 13.8602 14.7803 13.7196C14.6397 13.5789 14.4489 13.4999 14.25 13.4999H9.75C9.55109 13.4999 9.36032 13.5789 9.21967 13.7196C9.07902 13.8602 9 14.051 9 14.2499V19.4999H4.5V11.2499ZM13.5 19.4999H10.5V14.9999H13.5V19.4999Z" fill="black"/>
</svg>
