<svg width="24" height="24" viewBox="0 0 24 24" fill="none" xmlns="http://www.w3.org/2000/svg">
<path d="M17.2729 17.227C17.3252 17.2793 17.3666 17.3413 17.3949 17.4096C17.4232 17.4779 17.4378 17.5511 17.4378 17.625C17.4378 17.6989 17.4232 17.7721 17.3949 17.8404C17.3666 17.9086 17.3252 17.9707 17.2729 18.0229C17.2207 18.0752 17.1586 18.1167 17.0903 18.1449C17.022 18.1732 16.9489 18.1878 16.875 18.1878C16.801 18.1878 16.7279 18.1732 16.6596 18.1449C16.5913 18.1167 16.5292 18.0752 16.477 18.0229L10.852 12.3979C10.7997 12.3457 10.7582 12.2837 10.7299 12.2154C10.7016 12.1471 10.687 12.0739 10.687 12C10.687 11.9261 10.7016 11.8529 10.7299 11.7846C10.7582 11.7163 10.7997 11.6542 10.852 11.602L16.477 5.97701C16.5825 5.87146 16.7257 5.81216 16.875 5.81216C17.0242 5.81216 17.1674 5.87146 17.2729 5.97701C17.3785 6.08256 17.4378 6.22571 17.4378 6.37498C17.4378 6.52424 17.3785 6.6674 17.2729 6.77295L12.0452 12L17.2729 17.227ZM6.42019 12L11.6479 6.77295C11.7535 6.6674 11.8128 6.52424 11.8128 6.37498C11.8128 6.22571 11.7535 6.08256 11.6479 5.97701C11.5424 5.87146 11.3992 5.81216 11.25 5.81216C11.1007 5.81216 10.9575 5.87146 10.852 5.97701L5.22699 11.602C5.17469 11.6542 5.1332 11.7163 5.10489 11.7846C5.07658 11.8529 5.06201 11.9261 5.06201 12C5.06201 12.0739 5.07658 12.1471 5.10489 12.2154C5.1332 12.2837 5.17469 12.3457 5.22699 12.3979L10.852 18.0229C10.9042 18.0752 10.9663 18.1167 11.0346 18.1449C11.1029 18.1732 11.176 18.1878 11.25 18.1878C11.3239 18.1878 11.397 18.1732 11.4653 18.1449C11.5336 18.1167 11.5957 18.0752 11.6479 18.0229C11.7002 17.9707 11.7416 17.9086 11.7699 17.8404C11.7982 17.7721 11.8128 17.6989 11.8128 17.625C11.8128 17.5511 11.7982 17.4779 11.7699 17.4096C11.7416 17.3413 11.7002 17.2793 11.6479 17.227L6.42019 12Z" fill="black"/>
</svg>
