<svg width="24" height="24" viewBox="0 0 24 24" fill="none" xmlns="http://www.w3.org/2000/svg">
<path d="M21.3103 7.62915L17.1216 3.43946C16.9823 3.30014 16.8169 3.18962 16.6349 3.11421C16.4529 3.03881 16.2578 3 16.0608 3C15.8638 3 15.6687 3.03881 15.4867 3.11421C15.3047 3.18962 15.1393 3.30014 15 3.43946L3.43969 15.0007C3.2998 15.1395 3.18889 15.3047 3.11341 15.4867C3.03792 15.6688 2.99938 15.864 3.00001 16.061V20.2507C3.00001 20.6485 3.15804 21.0301 3.43935 21.3114C3.72065 21.5927 4.10218 21.7507 4.50001 21.7507H8.6897C8.88675 21.7513 9.08197 21.7128 9.26399 21.6373C9.44602 21.5618 9.61122 21.4509 9.75001 21.311L21.3103 9.75071C21.4496 9.61142 21.5602 9.44604 21.6356 9.26403C21.711 9.08202 21.7498 8.88694 21.7498 8.68993C21.7498 8.49292 21.711 8.29784 21.6356 8.11582C21.5602 7.93381 21.4496 7.76844 21.3103 7.62915ZM8.6897 20.2507H4.50001V16.061L12.75 7.81102L16.9397 12.0007L8.6897 20.2507ZM18 10.9395L13.8103 6.75071L16.0603 4.50071L20.25 8.68946L18 10.9395Z" fill="black"/>
</svg>
