<svg width="24" height="22" viewBox="0 0 24 22" fill="none" xmlns="http://www.w3.org/2000/svg">
<path d="M21 12.375V17.875C21 18.0573 20.921 18.2322 20.7803 18.3611C20.6397 18.4901 20.4489 18.5625 20.25 18.5625H3.75C3.55109 18.5625 3.36032 18.4901 3.21967 18.3611C3.07902 18.2322 3 18.0573 3 17.875V12.375C3 12.1927 3.07902 12.0178 3.21967 11.8889C3.36032 11.7599 3.55109 11.6875 3.75 11.6875C3.94891 11.6875 4.13968 11.7599 4.28033 11.8889C4.42098 12.0178 4.5 12.1927 4.5 12.375V17.1875H19.5V12.375C19.5 12.1927 19.579 12.0178 19.7197 11.8889C19.8603 11.7599 20.0511 11.6875 20.25 11.6875C20.4489 11.6875 20.6397 11.7599 20.7803 11.8889C20.921 12.0178 21 12.1927 21 12.375ZM11.4694 12.8614C11.539 12.9253 11.6217 12.976 11.7128 13.0106C11.8038 13.0452 11.9014 13.063 12 13.063C12.0986 13.063 12.1962 13.0452 12.2872 13.0106C12.3783 12.976 12.461 12.9253 12.5306 12.8614L16.2806 9.42391C16.3503 9.36003 16.4056 9.2842 16.4433 9.20074C16.481 9.11728 16.5004 9.02783 16.5004 8.9375C16.5004 8.84717 16.481 8.75772 16.4433 8.67426C16.4056 8.5908 16.3503 8.51497 16.2806 8.45109C16.2109 8.38722 16.1282 8.33655 16.0372 8.30198C15.9461 8.26741 15.8485 8.24962 15.75 8.24962C15.6515 8.24962 15.5539 8.26741 15.4628 8.30198C15.3718 8.33655 15.2891 8.38722 15.2194 8.45109L12.75 10.7155V2.75C12.75 2.56766 12.671 2.3928 12.5303 2.26386C12.3897 2.13493 12.1989 2.0625 12 2.0625C11.8011 2.0625 11.6103 2.13493 11.4697 2.26386C11.329 2.3928 11.25 2.56766 11.25 2.75V10.7155L8.78063 8.45109C8.63989 8.32209 8.44902 8.24962 8.25 8.24962C8.05098 8.24962 7.86011 8.32209 7.71937 8.45109C7.57864 8.5801 7.49958 8.75506 7.49958 8.9375C7.49958 9.11994 7.57864 9.2949 7.71937 9.42391L11.4694 12.8614Z" fill="black"/>
</svg>
