<svg width="24" height="24" viewBox="0 0 24 24" fill="none" xmlns="http://www.w3.org/2000/svg">
<path d="M10.875 12C10.875 11.7775 10.941 11.56 11.0646 11.375C11.1882 11.19 11.3639 11.0458 11.5695 10.9606C11.775 10.8755 12.0012 10.8532 12.2195 10.8966C12.4377 10.94 12.6382 11.0472 12.7955 11.2045C12.9528 11.3618 13.06 11.5623 13.1034 11.7805C13.1468 11.9988 13.1245 12.225 13.0394 12.4305C12.9542 12.6361 12.81 12.8118 12.625 12.9354C12.44 13.059 12.2225 13.125 12 13.125C11.7016 13.125 11.4155 13.0065 11.2045 12.7955C10.9935 12.5845 10.875 12.2984 10.875 12ZM7.875 13.125C8.0975 13.125 8.31501 13.059 8.50001 12.9354C8.68502 12.8118 8.82921 12.6361 8.91436 12.4305C8.99951 12.225 9.02179 11.9988 8.97838 11.7805C8.93497 11.5623 8.82782 11.3618 8.67049 11.2045C8.51316 11.0472 8.3127 10.94 8.09447 10.8966C7.87624 10.8532 7.65004 10.8755 7.44448 10.9606C7.23891 11.0458 7.06321 11.19 6.93959 11.375C6.81598 11.56 6.75 11.7775 6.75 12C6.75 12.2984 6.86852 12.5845 7.0795 12.7955C7.29048 13.0065 7.57663 13.125 7.875 13.125ZM16.125 13.125C16.3475 13.125 16.565 13.059 16.75 12.9354C16.935 12.8118 17.0792 12.6361 17.1644 12.4305C17.2495 12.225 17.2718 11.9988 17.2284 11.7805C17.185 11.5623 17.0778 11.3618 16.9205 11.2045C16.7632 11.0472 16.5627 10.94 16.3445 10.8966C16.1262 10.8532 15.9 10.8755 15.6945 10.9606C15.4889 11.0458 15.3132 11.19 15.1896 11.375C15.066 11.56 15 11.7775 15 12C15 12.2984 15.1185 12.5845 15.3295 12.7955C15.5405 13.0065 15.8266 13.125 16.125 13.125ZM21.75 6V18C21.75 18.3978 21.592 18.7794 21.3107 19.0607C21.0294 19.342 20.6478 19.5 20.25 19.5H7.78125L4.725 22.14L4.71656 22.1466C4.44659 22.3755 4.10394 22.5008 3.74999 22.5C3.52965 22.4995 3.31207 22.4509 3.11249 22.3575C2.85362 22.2379 2.63465 22.0462 2.48171 21.8055C2.32877 21.5648 2.24833 21.2852 2.24999 21V6C2.24999 5.60218 2.40803 5.22064 2.68933 4.93934C2.97064 4.65804 3.35217 4.5 3.74999 4.5H20.25C20.6478 4.5 21.0294 4.65804 21.3107 4.93934C21.592 5.22064 21.75 5.60218 21.75 6ZM20.25 6H3.74999V21L7.00968 18.1875C7.1452 18.068 7.31931 18.0014 7.5 18H20.25V6Z" fill="black"/>
</svg>
