<svg width="24" height="24" viewBox="0 0 24 24" fill="none" xmlns="http://www.w3.org/2000/svg">
<path d="M18.5306 18.9694C18.6003 19.039 18.6556 19.1218 18.6933 19.2128C18.731 19.3039 18.7504 19.4014 18.7504 19.5C18.7504 19.5985 18.731 19.6961 18.6933 19.7872C18.6556 19.8782 18.6003 19.9609 18.5306 20.0306C18.4609 20.1003 18.3782 20.1556 18.2872 20.1933C18.1961 20.231 18.0985 20.2504 18 20.2504C17.9015 20.2504 17.8039 20.231 17.7128 20.1933C17.6218 20.1556 17.5391 20.1003 17.4694 20.0306L9.96937 12.5306C9.89964 12.461 9.84432 12.3782 9.80658 12.2872C9.76884 12.1961 9.74941 12.0986 9.74941 12C9.74941 11.9014 9.76884 11.8038 9.80658 11.7128C9.84432 11.6217 9.89964 11.539 9.96937 11.4694L17.4694 3.96936C17.6101 3.82863 17.801 3.74957 18 3.74957C18.199 3.74957 18.3899 3.82863 18.5306 3.96936C18.6714 4.1101 18.7504 4.30097 18.7504 4.49999C18.7504 4.69901 18.6714 4.88988 18.5306 5.03061L11.5603 12L18.5306 18.9694ZM6.75 3.74999C6.55109 3.74999 6.36032 3.82901 6.21967 3.96966C6.07902 4.11031 6 4.30108 6 4.49999V19.5C6 19.6989 6.07902 19.8897 6.21967 20.0303C6.36032 20.171 6.55109 20.25 6.75 20.25C6.94891 20.25 7.13968 20.171 7.28033 20.0303C7.42098 19.8897 7.5 19.6989 7.5 19.5V4.49999C7.5 4.30108 7.42098 4.11031 7.28033 3.96966C7.13968 3.82901 6.94891 3.74999 6.75 3.74999Z" fill="black"/>
</svg>
